<svg id="Layer_1" data-name="Layer 1" xmlns="http://www.w3.org/2000/svg" viewBox="0 0 720.13 163.16"><defs><style>.cls-1{fill:#1596ff;}.cls-1,.cls-2,.cls-3,.cls-4{stroke:#000a4a;stroke-miterlimit:10;}.cls-1,.cls-3{stroke-width:7px;}.cls-2{fill:none;stroke-width:6px;}.cls-3{fill:#fff;}.cls-4{fill:#03d1de;stroke-width:5px;}.cls-5{fill:#000a4a;}</style></defs><ellipse class="cls-1" cx="102.14" cy="86.22" rx="57.7" ry="59.31"/><path class="cls-2" d="M158.72,74.5c15.35-18.64,15.86-26.89,13.47-31-7.36-12.6-52.76-3.92-86.34,16.49C53.47,79.68,24.12,115.1,32.1,128.93c2.71,4.69,10.89,8.9,36,5.19"/><path class="cls-3" d="M81.27,117.89l13.2-22.8c-.76-.52-6.29-4.49-6.4-10.76-.14-7.28,7.16-13,14.1-13.63,4.32-.36,10.55,1.11,13.5,6.39s1.53,12.89-4,17.6l14,22c-.68,1-8.85,12.13-23.15,11.87C89.73,128.33,82.25,119.14,81.27,117.89Z"/><circle class="cls-4" cx="32.7" cy="128.56" r="8.13"/><circle class="cls-4" cx="171.82" cy="43.34" r="8.13"/><path class="cls-2" d="M45.81,74.5c-15.11-18.19-16-26.66-13.48-31,7.33-12.85,52.76-5.08,86.33,15.12,33.06,19.89,62,56.28,53.76,70.3-2.79,4.73-11,8.95-36,5.19"/><circle class="cls-4" cx="171.82" cy="128.56" r="8.13"/><circle class="cls-4" cx="32.7" cy="43.34" r="8.13"/><path class="cls-5" d="M218.51,58.35c0-16.63,12.73-28.42,30.06-28.42,10.07,0,18.19,3.67,23.5,10.3l-9.84,8.9c-3.43-4.13-7.65-6.4-12.88-6.4-9,0-15.23,6.25-15.23,15.62S240.37,74,249.35,74c5.23,0,9.45-2.26,12.88-6.4l9.84,8.9c-5.31,6.64-13.43,10.31-23.5,10.31C231.24,86.77,218.51,75,218.51,58.35Z"/><path class="cls-5" d="M274.25,64.44c0-12.73,10.08-21.79,23.89-21.79,14,0,23.9,9.06,23.9,21.79s-9.92,21.94-23.9,21.94C284.33,86.38,274.25,77.24,274.25,64.44Zm32.8,0c0-6.41-3.83-10-8.91-10s-8.9,3.59-8.9,10,3.91,10.15,8.9,10.15S307.05,70.92,307.05,64.44Z"/><path class="cls-5" d="M401.13,61.47v24.2H386.29V63.89c0-6.09-2.5-8.67-6.4-8.67-4.29,0-7.42,2.89-7.42,9.45v21H357.64V63.89c0-6.09-2.42-8.67-6.4-8.67-4.38,0-7.5,2.89-7.5,9.45v21H328.9V43.36H343v4.45a16.82,16.82,0,0,1,12.65-5.16c5.77,0,10.69,2.11,13.66,6.64A18.32,18.32,0,0,1,384,42.65C393.87,42.65,401.13,48.35,401.13,61.47Z"/><path class="cls-5" d="M482.72,61.47v24.2H467.88V63.89c0-6.09-2.5-8.67-6.4-8.67-4.3,0-7.42,2.89-7.42,9.45v21H439.23V63.89c0-6.09-2.43-8.67-6.41-8.67-4.37,0-7.49,2.89-7.49,9.45v21H410.49V43.36h14.14v4.45a16.81,16.81,0,0,1,12.64-5.16c5.78,0,10.7,2.11,13.67,6.64a18.32,18.32,0,0,1,14.68-6.64C475.45,42.65,482.72,48.35,482.72,61.47Z"/><path class="cls-5" d="M536.59,43.36V85.67H522.45V81.15a16.69,16.69,0,0,1-12.57,5.23c-10.38,0-18-5.94-18-19.37V43.36h14.84V64.59c0,6.56,2.58,9.14,7,9.14s8-2.89,8-10V43.36Z"/><path class="cls-5" d="M591.16,61.47v24.2H576.32V63.89c0-6.09-2.65-8.67-7-8.67-4.76,0-8.43,3-8.43,10V85.67H546.11V43.36h14.13V48a18.2,18.2,0,0,1,13.43-5.31C583.59,42.65,591.16,48.35,591.16,61.47Z"/><path class="cls-5" d="M598.81,30.78c0-4.45,3.59-7.88,9.05-7.88s9.06,3.2,9.06,7.65c0,4.69-3.59,8.12-9.06,8.12S598.81,35.24,598.81,30.78Zm1.64,12.58h14.83V85.67H600.45Z"/><path class="cls-5" d="M654.09,84c-2.58,1.64-6.41,2.42-10.31,2.42-10.86,0-17.18-5.31-17.18-16.16V56h-6.17V44.92h6.17v-11h14.84v11h9.68V56h-9.68V70.06c0,3.12,1.79,4.84,4.45,4.84a8.12,8.12,0,0,0,4.53-1.33Z"/><path class="cls-5" d="M703.58,43.36l-18.27,44c-4.45,10.93-10.69,14.13-19,14.13-4.45,0-9.45-1.48-12.26-3.82l5.16-10.39a10,10,0,0,0,6.56,2.5,5.72,5.72,0,0,0,5.77-3.59L653.38,43.36H668.6L679,69.2l10.46-25.84Z"/><path class="cls-5" d="M218.18,137.51l2.16-4.84a18.53,18.53,0,0,0,11.06,3.69c5.22,0,7.42-1.87,7.42-4.36,0-7.23-19.92-2.49-19.92-14.93,0-5.42,4.31-10,13.5-10a21.14,21.14,0,0,1,11.16,3l-2,4.83a18.64,18.64,0,0,0-9.24-2.63c-5.17,0-7.28,2-7.28,4.55,0,7.13,19.87,2.49,19.87,14.79,0,5.37-4.36,10-13.55,10C226.18,141.53,221,139.9,218.18,137.51Z"/><path class="cls-5" d="M248.45,128.27c0-7.66,5.74-13.07,13.84-13.07,5,0,8.95,2.06,10.91,5.93l-4.59,2.69a7.23,7.23,0,0,0-6.37-3.55c-4.41,0-7.76,3.07-7.76,8s3.35,8,7.76,8a7.26,7.26,0,0,0,6.37-3.55l4.59,2.68c-2,3.83-5.94,6-10.91,6C254.19,141.39,248.45,135.93,248.45,128.27Z"/><path class="cls-5" d="M277.56,107.68a3.65,3.65,0,0,1,3.83-3.59,3.56,3.56,0,0,1,3.83,3.45,3.83,3.83,0,0,1-7.66.14Zm.82,7.81h6v25.56h-6Z"/><path class="cls-5" d="M316.15,130.18H296.09c.72,3.74,3.83,6.13,8.29,6.13a9.18,9.18,0,0,0,6.94-2.77l3.21,3.68c-2.3,2.73-5.89,4.17-10.3,4.17-8.57,0-14.12-5.51-14.12-13.12s5.6-13.07,13.21-13.07,12.93,5.22,12.93,13.21C316.25,128.89,316.2,129.61,316.15,130.18Zm-20.11-4h14.51a7,7,0,0,0-7.23-6.22A7.07,7.07,0,0,0,296,126.21Z"/><path class="cls-5" d="M347.18,126.4v14.65h-6V127.17c0-4.55-2.25-6.75-6.08-6.75-4.26,0-7.14,2.58-7.14,7.71v12.92h-6V115.49h5.7v3.3c2-2.35,5.07-3.59,8.81-3.59C342.64,115.2,347.18,118.69,347.18,126.4Z"/><path class="cls-5" d="M352.93,128.27c0-7.66,5.75-13.07,13.84-13.07,5,0,9,2.06,10.92,5.93l-4.6,2.69a7.22,7.22,0,0,0-6.37-3.55c-4.4,0-7.75,3.07-7.75,8s3.35,8,7.75,8a7.24,7.24,0,0,0,6.37-3.55l4.6,2.68c-2,3.83-5.94,6-10.92,6C358.68,141.39,352.93,135.93,352.93,128.27Z"/><path class="cls-5" d="M406.42,130.18H386.36c.72,3.74,3.83,6.13,8.28,6.13a9.18,9.18,0,0,0,6.94-2.77l3.21,3.68c-2.3,2.73-5.89,4.17-10.29,4.17-8.57,0-14.13-5.51-14.13-13.12s5.6-13.07,13.22-13.07,12.92,5.22,12.92,13.21C406.51,128.89,406.47,129.61,406.42,130.18Zm-20.11-4h14.51a7,7,0,0,0-7.23-6.22A7.06,7.06,0,0,0,386.31,126.21Z"/><path class="cls-5" d="M456.84,141.05l0-22.21-11,18.38H443l-11-18.1v21.93h-5.94V107.54h5.13l13.31,22.21,13.07-22.21h5.12l.05,33.51Z"/><path class="cls-5" d="M496,115.49v25.56h-5.7V137.8a10.47,10.47,0,0,1-8.24,3.59c-6.56,0-11-3.59-11-11.3v-14.6h6v13.79c0,4.64,2.21,6.84,6,6.84,4.16,0,7-2.58,7-7.71V115.49Z"/><path class="cls-5" d="M500.9,138.52l2.3-4.55a17.25,17.25,0,0,0,8.9,2.54c3.79,0,5.37-1.06,5.37-2.83,0-4.88-15.8-.29-15.8-10.49,0-4.83,4.35-8,11.25-8,3.4,0,7.28.81,9.57,2.2L520.2,122a14,14,0,0,0-7.33-1.92c-3.64,0-5.36,1.2-5.36,2.88,0,5.17,15.8.57,15.8,10.58,0,4.79-4.41,7.9-11.59,7.9C507.46,141.39,503.2,140.14,500.9,138.52Z"/><path class="cls-5" d="M552.42,130.18H532.36c.72,3.74,3.83,6.13,8.28,6.13a9.19,9.19,0,0,0,7-2.77l3.2,3.68c-2.29,2.73-5.89,4.17-10.29,4.17-8.57,0-14.13-5.51-14.13-13.12S532,115.2,539.59,115.2s12.93,5.22,12.93,13.21C552.52,128.89,552.47,129.61,552.42,130.18Zm-20.11-4h14.51a7,7,0,0,0-7.23-6.22A7.07,7.07,0,0,0,532.31,126.21Z"/><path class="cls-5" d="M583,115.49v25.56h-5.7V137.8a10.45,10.45,0,0,1-8.23,3.59c-6.56,0-11-3.59-11-11.3v-14.6h6v13.79c0,4.64,2.2,6.84,6,6.84,4.16,0,7-2.58,7-7.71V115.49Z"/><path class="cls-5" d="M633.63,126.4v14.65h-6V127.17c0-4.55-2.11-6.75-5.75-6.75-3.92,0-6.65,2.58-6.65,7.66v13h-6V127.17c0-4.55-2.1-6.75-5.74-6.75-4,0-6.66,2.58-6.66,7.66v13h-6V115.49h5.69v3.25A10.6,10.6,0,0,1,605,115.2c3.74,0,6.85,1.39,8.62,4.26a12,12,0,0,1,9.58-4.26C629.33,115.2,633.63,118.69,633.63,126.4Z"/></svg>